<svg width="164.4999786376953px" height="120.8099884033203px" xmlns="http://www.w3.org/2000/svg" viewBox="167.75001068115233 14.595005798339848 164.4999786376953 120.8099884033203" style="background: rgba(0, 0, 0, 0);" preserveAspectRatio="xMidYMid"><defs><filter id="editing-extrusion" x="-100%" y="-100%" width="300%" height="300%"><feFlood result="color1" flood-color="#444444"></feFlood><feConvolveMatrix order="8,8" divisor="1" kernelMatrix="1 0 0 0 0 0 0 0 0 1 0 0 0 0 0 0 0 0 1 0 0 0 0 0 0 0 0 1 0 0 0 0 0 0 0 0 1 0 0 0 0 0 0 0 0 1 0 0 0 0 0 0 0 0 1 0 0 0 0 0 0 0 0 1" in="SourceAlpha" result="extrude"></feConvolveMatrix><feComposite in="color1" in2="extrude" result="comp-extrude" operator="in"></feComposite><feOffset dx="4" dy="4" in="comp-extrude" result="offset-extrude"></feOffset><feMerge><feMergeNode in="offset-extrude"></feMergeNode><feMergeNode in="SourceGraphic"></feMergeNode></feMerge></filter></defs><g filter="url(#editing-extrusion)"><g transform="translate(197.49125015735626, 102.84000015258789)"><path d="M26.05-29.57L26.05-29.57L26.05-29.57Q27.01-31.49 27.01-33.28L27.01-33.28L27.01-33.28Q27.01-35.07 26.82-36.06L26.82-36.06L26.82-36.06Q26.62-37.06 26.18-37.82L26.18-37.82L26.18-37.82Q25.22-39.49 23.30-39.49L23.30-39.49L23.30-39.49Q20.93-39.49 19.01-37.76L19.01-37.76L19.01-37.76Q16.96-35.97 16.96-33.15L16.96-33.15L16.96-33.15Q16.96-31.36 18.21-29.98L18.21-29.98L18.21-29.98Q19.46-28.61 21.38-27.33L21.38-27.33L21.38-27.33Q23.30-26.05 25.47-24.77L25.47-24.77L25.47-24.77Q27.65-23.49 29.57-21.95L29.57-21.95L29.57-21.95Q33.98-18.43 33.98-13.70L33.98-13.70L33.98-13.70Q33.98-10.50 32.29-7.78L32.29-7.78L32.29-7.78Q30.59-5.06 27.78-3.07L27.78-3.07L27.78-3.07Q21.63 1.28 13.50 1.28L13.50 1.28L13.50 1.28Q6.91 1.28 3.52-0.86L3.52-0.86L3.52-0.86Q0.13-3.01 0.13-6.27L0.13-6.27L0.13-6.27Q0.13-12.10 4.67-13.57L4.67-13.57L4.67-13.57Q5.95-14.02 7.90-14.02L7.90-14.02L7.90-14.02Q9.86-14.02 12.10-13.18L12.10-13.18L12.10-13.18Q11.07-10.56 11.07-8.19L11.07-8.19L11.07-8.19Q11.07-3.07 14.72-3.07L14.72-3.07L14.72-3.07Q17.09-3.07 19.04-4.80L19.04-4.80L19.04-4.80Q20.99-6.53 20.99-8.48L20.99-8.48L20.99-8.48Q20.99-10.43 19.74-11.84L19.74-11.84L19.74-11.84Q18.50-13.25 16.64-14.37L16.64-14.37L16.64-14.37Q14.78-15.49 12.64-16.58L12.64-16.58L12.64-16.58Q10.50-17.66 8.64-19.20L8.64-19.20L8.64-19.20Q4.29-22.72 4.29-28.35L4.29-28.35L4.29-28.35Q4.29-32 6.08-34.85L6.08-34.85L6.08-34.85Q7.87-37.70 10.75-39.62L10.75-39.62L10.75-39.62Q16.51-43.52 23.58-43.52L23.58-43.52L23.58-43.52Q30.66-43.52 34.08-41.41L34.08-41.41L34.08-41.41Q37.50-39.30 37.50-35.71L37.50-35.71L37.50-35.71Q37.50-32.58 35.07-30.59L35.07-30.59L35.07-30.59Q32.96-28.93 30.40-28.93L30.40-28.93L30.40-28.93Q27.84-28.93 26.05-29.57ZM51.90 0L38.27 0L45.57-38.91L46.27-42.24L59.97-42.24L51.90 0ZM77.89-3.78L77.89-3.78L77.89-3.78Q76.16 1.28 69.50 1.28L69.50 1.28L69.50 1.28Q64.58 1.28 61.18-4.61L61.18-4.61L61.18-4.61Q57.73-10.50 57.09-20.10L57.09-20.10L57.09-20.10Q64.13-32.96 68.99-38.27L68.99-38.27L68.99-38.27Q73.66-43.33 78.53-43.33L78.53-43.33L78.53-43.33Q81.15-43.33 83.04-41.92L83.04-41.92L83.04-41.92Q84.93-40.51 85.38-38.27L85.38-38.27L85.38-38.27Q83.20-37.38 82.18-36.67L82.18-36.67L82.18-36.67Q79.62-34.75 76.16-30.46L76.16-30.46L70.34-23.49L70.34-23.49Q68.93-21.82 68.35-21.06L68.35-21.06L68.35-21.06Q69.31-15.68 72.19-10.37L72.19-10.37L72.19-10.37Q74.94-5.31 77.89-3.78ZM75.26 8.83L75.26 8.83L75.26 8.83Q78.53 8.45 80.58 4.22L80.58 4.22L80.58 4.22Q82.69-0.06 84.61-9.92L84.61-9.92L90.82-42.24L104.70-42.24L98.50-9.92L98.50-9.92Q96.13 2.62 92.22 7.55L92.22 7.55L92.22 7.55Q90.18 10.11 87.58 11.14L87.58 11.14L87.58 11.14Q84.99 12.16 82.18 12.16L82.18 12.16L82.18 12.16Q79.36 12.16 77.54 11.14L77.54 11.14L77.54 11.14Q75.71 10.11 75.26 8.83Z" fill="#007bff"></path></g></g><style>text {
  font-size: 64px;
  font-family: Arial Black;
  dominant-baseline: central;
  text-anchor: middle;
}</style></svg>