<?xml version="1.0" encoding="UTF-8" ?>
<!DOCTYPE svg PUBLIC "-//W3C//DTD SVG 1.1//EN" "http://www.w3.org/Graphics/SVG/1.1/DTD/svg11.dtd">
<svg width="400pt" height="400pt" viewBox="0 0 400 400" version="1.1" xmlns="http://www.w3.org/2000/svg">
<g id="#000000ff">
</g>
<g id="#292929ff">
<path fill="#292929" opacity="1.00" d=" M 117.96 27.91 C 151.36 13.36 187.45 4.17 224.00 3.97 C 247.21 4.27 270.66 8.36 291.80 18.21 C 300.43 22.38 307.75 28.80 314.18 35.83 C 321.71 44.96 327.26 55.63 331.11 66.79 C 332.55 70.96 333.06 75.38 334.35 79.59 C 334.84 81.66 337.12 82.29 338.69 83.34 C 347.44 87.82 354.44 95.10 359.85 103.20 C 365.92 111.51 369.07 121.48 371.89 131.26 C 376.37 151.32 375.19 172.09 373.50 192.41 C 372.50 202.98 369.69 213.24 367.48 223.59 C 366.18 229.33 363.69 234.68 361.61 240.15 C 359.45 235.92 356.84 231.94 354.49 227.82 C 358.13 222.69 358.82 216.28 360.28 210.32 C 364.38 189.93 366.44 168.89 363.79 148.17 C 362.82 137.29 359.70 126.68 355.38 116.69 C 350.57 108.22 344.90 99.67 336.25 94.69 C 332.63 92.16 327.99 91.27 324.71 88.30 C 322.78 83.25 323.21 77.63 321.55 72.49 C 318.82 63.65 314.62 55.28 309.45 47.62 C 305.22 41.27 299.37 36.18 293.19 31.79 C 281.65 23.74 267.63 20.71 254.16 17.55 C 242.32 14.73 230.10 14.52 218.00 14.64 C 207.55 14.25 197.24 16.17 186.97 17.78 C 168.42 21.29 150.16 26.42 132.68 33.57 C 127.01 35.88 121.11 37.67 115.71 40.62 C 105.74 46.14 95.04 50.26 85.30 56.22 C 78.57 60.07 71.74 63.81 65.45 68.39 C 59.80 72.29 53.69 75.64 48.84 80.59 C 58.60 85.73 70.02 87.63 78.69 94.74 C 73.87 99.25 68.03 102.66 63.90 107.89 C 58.82 114.34 53.48 120.78 50.44 128.51 C 44.71 140.87 40.83 154.20 40.36 167.85 C 40.60 169.32 41.18 170.71 41.63 172.13 C 51.07 168.63 59.86 163.66 69.25 160.05 C 70.15 168.02 69.48 176.08 70.70 184.02 C 72.68 198.84 71.00 214.64 77.39 228.54 C 74.66 232.13 72.11 235.88 70.22 239.99 C 69.01 236.19 67.51 232.49 66.26 228.71 C 61.74 211.78 60.73 194.22 59.63 176.81 C 49.49 179.64 40.69 185.80 30.69 189.07 C 29.07 185.61 29.35 181.75 29.17 178.04 C 28.46 166.57 30.83 155.21 33.20 144.06 C 36.03 133.55 40.75 123.62 46.31 114.29 C 50.18 107.83 55.45 102.41 60.36 96.74 C 49.17 91.27 36.57 90.24 24.83 86.44 C 26.16 84.30 27.74 82.31 29.79 80.82 C 56.67 59.39 86.32 41.37 117.96 27.91 Z" />
</g>
<g id="#424242ff">
<path fill="#424242" opacity="1.00" d=" M 186.97 17.78 C 197.24 16.17 207.55 14.25 218.00 14.64 C 230.10 14.52 242.32 14.73 254.16 17.55 C 267.63 20.71 281.65 23.74 293.19 31.79 C 299.37 36.18 305.22 41.27 309.45 47.62 C 314.62 55.28 318.82 63.65 321.55 72.49 C 323.21 77.63 322.78 83.25 324.71 88.30 C 327.99 91.27 332.63 92.16 336.25 94.69 C 344.90 99.67 350.57 108.22 355.38 116.69 C 359.70 126.68 362.82 137.29 363.79 148.17 C 366.44 168.89 364.38 189.93 360.28 210.32 C 358.82 216.28 358.13 222.69 354.49 227.82 C 351.95 231.25 349.56 234.82 347.96 238.80 C 345.19 245.07 342.90 251.66 338.72 257.17 C 337.81 254.75 336.91 252.34 336.19 249.86 C 335.84 248.45 335.50 247.05 335.22 245.64 C 336.61 240.34 337.30 234.89 338.76 229.61 C 340.09 224.45 345.67 222.58 349.24 219.26 C 353.53 216.17 355.00 209.42 351.95 205.05 C 347.87 202.32 342.22 205.01 337.99 202.95 C 334.11 198.40 330.98 192.98 325.52 190.06 C 325.47 185.63 324.27 181.34 322.67 177.25 C 318.70 165.84 313.63 154.55 305.63 145.36 C 299.94 138.70 292.32 133.75 283.99 131.08 C 277.61 129.03 270.83 129.41 264.24 128.85 C 261.24 123.98 258.12 119.00 253.49 115.50 C 245.22 109.13 234.54 106.77 224.29 106.46 C 207.28 105.90 191.23 116.31 182.62 130.61 C 173.32 145.97 170.76 164.31 170.55 181.97 C 160.82 179.61 151.43 175.59 143.33 169.67 C 139.43 166.76 136.17 163.14 132.62 159.84 C 131.69 167.31 131.29 174.83 131.28 182.35 C 124.75 183.16 118.29 184.79 112.24 187.39 C 110.86 182.96 106.16 180.89 102.91 177.99 C 100.88 183.47 98.44 189.16 99.15 195.14 C 96.91 197.87 95.22 201.29 92.04 203.05 C 88.02 204.07 83.76 202.70 79.76 203.79 C 76.44 205.54 76.56 210.06 77.94 213.05 C 80.10 218.34 85.37 221.06 89.55 224.50 C 93.49 227.71 93.70 233.21 94.63 237.83 C 94.25 244.31 93.64 250.79 93.53 257.29 C 89.65 252.24 86.91 246.47 84.03 240.82 C 81.98 236.64 79.65 232.61 77.39 228.54 C 71.00 214.64 72.68 198.84 70.70 184.02 C 69.48 176.08 70.15 168.02 69.25 160.05 C 59.86 163.66 51.07 168.63 41.63 172.13 C 41.18 170.71 40.60 169.32 40.36 167.85 C 40.83 154.20 44.71 140.87 50.44 128.51 C 53.48 120.78 58.82 114.34 63.90 107.89 C 68.03 102.66 73.87 99.25 78.69 94.74 C 70.02 87.63 58.60 85.73 48.84 80.59 C 53.69 75.64 59.80 72.29 65.45 68.39 C 71.74 63.81 78.57 60.07 85.30 56.22 C 95.04 50.26 105.74 46.14 115.71 40.62 C 121.11 37.67 127.01 35.88 132.68 33.57 C 150.16 26.42 168.42 21.29 186.97 17.78 Z" />
</g>
<g id="#d4a883ff">
<path fill="#d4a883" opacity="1.00" d=" M 224.29 106.46 C 234.54 106.77 245.22 109.13 253.49 115.50 C 258.12 119.00 261.24 123.98 264.24 128.85 C 270.83 129.41 277.61 129.03 283.99 131.08 C 292.32 133.75 299.94 138.70 305.63 145.36 C 313.63 154.55 318.70 165.84 322.67 177.25 C 324.27 181.34 325.47 185.63 325.52 190.06 C 312.78 183.46 298.08 182.16 283.96 181.85 C 275.20 181.10 266.38 181.96 257.87 184.10 C 251.55 185.50 245.71 189.10 239.06 188.85 C 223.35 188.76 207.64 188.82 191.93 188.83 C 185.30 188.89 179.50 185.21 173.10 184.09 C 159.38 180.89 145.22 182.35 131.28 182.35 C 131.29 174.83 131.69 167.31 132.62 159.84 C 136.17 163.14 139.43 166.76 143.33 169.67 C 151.43 175.59 160.82 179.61 170.55 181.97 C 170.76 164.31 173.32 145.97 182.62 130.61 C 191.23 116.31 207.28 105.90 224.29 106.46 Z" />
<path fill="#d4a883" opacity="1.00" d=" M 259.60 260.41 C 263.48 260.97 267.29 261.90 271.01 263.15 C 276.24 265.03 281.76 263.33 287.11 263.11 C 296.47 262.16 306.00 264.99 315.19 262.13 C 309.49 270.96 297.92 274.04 287.95 273.27 C 277.59 272.03 266.80 268.28 259.60 260.41 Z" />
</g>
<g id="#cea684ff">
<path fill="#cea684" opacity="1.00" d=" M 102.91 177.99 C 106.16 180.89 110.86 182.96 112.24 187.39 C 107.50 189.26 102.78 191.46 99.15 195.14 C 98.44 189.16 100.88 183.47 102.91 177.99 Z" />
</g>
<g id="#612107ff">
<path fill="#612107" opacity="1.00" d=" M 112.24 187.39 C 118.29 184.79 124.75 183.16 131.28 182.35 C 145.22 182.35 159.38 180.89 173.10 184.09 C 179.50 185.21 185.30 188.89 191.93 188.83 C 207.64 188.82 223.35 188.76 239.06 188.85 C 245.71 189.10 251.55 185.50 257.87 184.10 C 266.38 181.96 275.20 181.10 283.96 181.85 C 298.08 182.16 312.78 183.46 325.52 190.06 C 330.98 192.98 334.11 198.40 337.99 202.95 C 342.22 205.01 347.87 202.32 351.95 205.05 C 355.00 209.42 353.53 216.17 349.24 219.26 C 345.67 222.58 340.09 224.45 338.76 229.61 C 337.30 234.89 336.61 240.34 335.22 245.64 C 331.31 254.13 327.76 263.23 320.69 269.69 C 312.84 276.67 302.65 281.42 292.01 281.35 C 278.99 281.88 266.46 276.48 256.22 268.79 C 244.43 258.69 233.88 246.64 227.79 232.20 C 225.85 228.11 224.07 223.19 219.58 221.28 C 215.44 219.26 210.40 221.23 207.78 224.75 C 205.09 228.39 203.74 232.79 201.74 236.81 C 196.53 247.61 188.35 256.57 179.94 264.97 C 169.52 274.94 155.35 280.54 141.03 281.37 C 128.59 281.85 116.52 275.84 108.01 267.02 C 101.36 258.51 97.19 248.25 94.63 237.83 C 93.70 233.21 93.49 227.71 89.55 224.50 C 85.37 221.06 80.10 218.34 77.94 213.05 C 76.56 210.06 76.44 205.54 79.76 203.79 C 83.76 202.70 88.02 204.07 92.04 203.05 C 95.22 201.29 96.91 197.87 99.15 195.14 C 102.78 191.46 107.50 189.26 112.24 187.39 M 120.96 192.70 C 114.65 194.79 107.49 196.66 103.10 202.02 C 99.11 208.56 98.69 216.78 100.02 224.17 C 100.46 230.78 101.47 237.78 105.39 243.32 C 105.73 248.63 108.62 253.23 111.34 257.64 C 114.58 263.04 120.02 266.56 125.32 269.70 C 134.84 274.91 146.39 273.80 156.28 270.26 C 163.33 267.10 170.35 263.34 175.63 257.58 C 183.72 249.47 191.94 240.76 195.88 229.79 C 199.04 223.93 200.34 216.82 198.82 210.28 C 197.17 203.90 191.46 199.85 186.09 196.68 C 178.58 192.91 170.26 191.94 162.12 190.41 C 148.40 189.36 134.34 188.87 120.96 192.70 M 266.43 190.78 C 262.64 191.53 258.84 192.30 254.97 192.50 C 256.21 192.86 257.47 193.15 258.73 193.47 C 254.08 193.72 249.58 194.94 245.18 196.44 C 239.94 199.46 235.11 203.79 232.72 209.45 C 231.83 216.20 231.43 224.26 236.08 229.81 C 236.84 232.78 238.08 235.62 239.78 238.19 C 244.41 245.39 249.76 252.16 255.92 258.11 C 256.99 259.07 258.09 260.23 259.60 260.41 C 266.80 268.28 277.59 272.03 287.95 273.27 C 297.92 274.04 309.49 270.96 315.19 262.13 C 317.60 261.04 319.24 258.84 320.72 256.72 C 323.66 252.21 326.61 247.43 327.11 241.93 C 330.42 236.69 330.58 230.08 331.45 224.08 C 331.41 216.14 332.55 206.73 326.49 200.52 C 320.23 195.41 312.23 192.86 304.44 191.14 L 305.31 190.96 C 292.42 189.37 279.33 189.26 266.43 190.78 M 200.74 196.95 C 202.27 199.85 204.04 202.62 205.99 205.26 C 212.27 205.26 218.60 205.87 224.84 205.09 C 227.75 203.30 228.95 199.61 230.91 196.88 C 220.86 196.55 210.78 196.43 200.74 196.95 Z" />
</g>
<g id="#9d9c9dff">
<path fill="#9d9c9d" opacity="1.00" d=" M 120.96 192.70 C 134.34 188.87 148.40 189.36 162.12 190.41 C 170.26 191.94 178.58 192.91 186.09 196.68 C 184.36 199.03 183.01 201.94 180.35 203.38 C 177.03 203.93 173.85 202.20 170.67 201.47 C 163.70 199.42 156.20 199.66 149.17 201.28 C 143.47 202.54 138.79 206.27 133.36 208.20 C 130.52 209.39 127.42 207.01 126.53 204.37 C 126.18 200.99 128.03 197.85 128.25 194.50 C 127.07 191.94 123.28 193.10 120.96 192.70 Z" />
</g>
<g id="#9f9d9cff">
<path fill="#9f9d9c" opacity="1.00" d=" M 266.43 190.78 C 279.33 189.26 292.42 189.37 305.31 190.96 L 304.44 191.14 C 303.03 191.05 301.62 191.09 300.23 191.28 C 302.15 193.89 304.39 196.38 305.51 199.47 C 306.74 203.14 303.82 207.48 299.94 207.57 C 296.30 206.78 293.24 204.51 289.89 203.02 C 281.04 198.60 270.61 198.20 261.14 200.67 C 257.98 201.32 254.83 202.61 251.57 202.28 C 249.11 200.73 247.26 198.43 245.18 196.44 C 249.58 194.94 254.08 193.72 258.73 193.47 C 257.47 193.15 256.21 192.86 254.97 192.50 C 258.84 192.30 262.64 191.53 266.43 190.78 Z" />
</g>
<g id="#e6ceb8ff">
<path fill="#e6ceb8" opacity="1.00" d=" M 300.23 191.28 C 301.62 191.09 303.03 191.05 304.44 191.14 C 312.23 192.86 320.23 195.41 326.49 200.52 C 332.55 206.73 331.41 216.14 331.45 224.08 C 326.52 226.01 321.36 227.23 316.43 229.15 C 311.66 231.22 306.68 228.91 302.03 227.66 C 300.21 230.00 297.78 228.91 295.81 227.44 C 295.52 227.06 294.94 226.28 294.65 225.90 C 291.90 222.20 288.96 218.37 284.72 216.31 C 278.03 213.05 270.11 212.82 263.00 214.78 C 256.05 216.68 250.87 222.41 247.66 228.63 C 246.16 231.46 244.95 234.43 243.58 237.33 C 241.64 234.30 238.77 232.10 236.08 229.81 C 231.43 224.26 231.83 216.20 232.72 209.45 C 235.11 203.79 239.94 199.46 245.18 196.44 C 247.26 198.43 249.11 200.73 251.57 202.28 C 254.83 202.61 257.98 201.32 261.14 200.67 C 270.61 198.20 281.04 198.60 289.89 203.02 C 293.24 204.51 296.30 206.78 299.94 207.57 C 303.82 207.48 306.74 203.14 305.51 199.47 C 304.39 196.38 302.15 193.89 300.23 191.28 Z" />
</g>
<g id="#e5cdb7ff">
<path fill="#e5cdb7" opacity="1.00" d=" M 103.10 202.02 C 107.49 196.66 114.65 194.79 120.96 192.70 C 123.28 193.10 127.07 191.94 128.25 194.50 C 128.03 197.85 126.18 200.99 126.53 204.37 C 127.42 207.01 130.52 209.39 133.36 208.20 C 138.79 206.27 143.47 202.54 149.17 201.28 C 156.20 199.66 163.70 199.42 170.67 201.47 C 173.85 202.20 177.03 203.93 180.35 203.38 C 183.01 201.94 184.36 199.03 186.09 196.68 C 191.46 199.85 197.17 203.90 198.82 210.28 C 200.34 216.82 199.04 223.93 195.88 229.79 C 192.29 233.81 188.49 237.67 184.42 241.22 C 184.07 237.33 183.92 233.30 182.28 229.69 C 178.93 221.96 171.85 215.80 163.52 214.18 C 157.61 213.05 151.24 213.15 145.70 215.68 C 140.52 218.07 136.38 222.30 133.41 227.10 C 128.12 224.42 122.49 227.65 116.99 226.87 C 112.33 226.22 107.56 225.56 103.21 223.69 C 101.17 221.28 101.12 217.85 100.35 214.90 C 100.27 217.99 100.06 221.08 100.02 224.17 C 98.69 216.78 99.11 208.56 103.10 202.02 Z" />
</g>
<g id="#d6a67fff">
<path fill="#d6a67f" opacity="1.00" d=" M 200.74 196.95 C 210.78 196.43 220.86 196.55 230.91 196.88 C 228.95 199.61 227.75 203.30 224.84 205.09 C 218.60 205.87 212.27 205.26 205.99 205.26 C 204.04 202.62 202.27 199.85 200.74 196.95 Z" />
</g>
<g id="#716d67ff">
<path fill="#716d67" opacity="1.00" d=" M 145.70 215.68 C 151.24 213.15 157.61 213.05 163.52 214.18 C 171.85 215.80 178.93 221.96 182.28 229.69 C 180.56 228.38 178.72 227.15 176.60 226.65 C 166.83 224.32 156.77 226.60 146.90 225.29 C 141.89 224.59 136.55 225.28 132.60 228.69 C 132.80 228.29 133.21 227.49 133.41 227.10 C 136.38 222.30 140.52 218.07 145.70 215.68 Z" />
</g>
<g id="#706d66ff">
<path fill="#706d66" opacity="1.00" d=" M 263.00 214.78 C 270.11 212.82 278.03 213.05 284.72 216.31 C 288.96 218.37 291.90 222.20 294.65 225.90 C 289.56 227.01 284.36 226.38 279.27 225.67 C 271.70 224.57 264.11 226.35 256.52 225.60 C 253.23 225.15 250.13 226.56 247.66 228.63 C 250.87 222.41 256.05 216.68 263.00 214.78 Z" />
</g>
<g id="#dfbda3ff">
<path fill="#dfbda3" opacity="1.00" d=" M 100.35 214.90 C 101.12 217.85 101.17 221.28 103.21 223.69 C 107.56 225.56 112.33 226.22 116.99 226.87 C 122.49 227.65 128.12 224.42 133.41 227.10 C 133.21 227.49 132.80 228.29 132.60 228.69 C 130.36 232.88 129.95 237.71 130.52 242.36 C 130.61 243.45 130.71 244.55 130.82 245.64 C 128.42 246.90 126.02 248.69 123.17 248.47 C 118.82 248.23 114.42 248.10 110.17 249.22 C 108.56 247.26 106.93 245.33 105.39 243.32 C 101.47 237.78 100.46 230.78 100.02 224.17 C 100.06 221.08 100.27 217.99 100.35 214.90 Z" />
</g>
<g id="#d0a37cff">
<path fill="#d0a37c" opacity="1.00" d=" M 207.78 224.75 C 210.40 221.23 215.44 219.26 219.58 221.28 C 224.07 223.19 225.85 228.11 227.79 232.20 C 233.88 246.64 244.43 258.69 256.22 268.79 C 266.46 276.48 278.99 281.88 292.01 281.35 C 302.65 281.42 312.84 276.67 320.69 269.69 C 327.76 263.23 331.31 254.13 335.22 245.64 C 335.50 247.05 335.84 248.45 336.19 249.86 C 338.54 258.72 338.28 268.04 335.97 276.88 C 334.87 279.17 333.82 281.51 333.46 284.04 C 332.54 289.93 330.74 295.62 329.29 301.40 C 327.87 307.08 324.60 312.01 322.30 317.34 C 319.69 322.97 317.43 328.83 313.93 333.98 C 312.79 335.78 310.60 336.26 308.78 337.07 C 308.43 340.70 306.85 344.01 304.07 346.42 C 303.45 343.26 302.93 340.08 302.48 336.90 C 298.16 336.74 293.85 336.92 289.56 337.35 C 288.61 335.86 287.66 334.37 286.71 332.89 C 292.77 324.69 297.80 315.54 301.02 305.86 C 302.13 301.31 302.47 296.13 300.06 291.93 C 297.66 288.79 293.28 289.16 289.84 289.86 C 278.04 292.34 265.99 293.16 254.04 294.59 C 242.68 294.92 231.37 296.31 220.00 296.07 C 210.90 295.97 201.79 296.43 192.72 295.53 C 183.88 294.68 174.96 295.14 166.16 293.88 C 156.51 292.58 146.79 291.80 137.26 289.76 C 133.55 288.85 128.87 289.10 126.68 292.72 C 124.44 297.24 125.06 302.67 126.65 307.31 C 129.33 315.13 133.94 322.10 138.29 329.07 C 137.06 331.50 135.48 333.84 134.90 336.54 C 135.97 338.10 137.35 339.40 138.66 340.77 C 139.54 339.44 140.42 338.12 141.31 336.80 C 144.12 338.16 146.40 340.31 147.63 343.22 C 144.31 342.44 140.93 341.96 137.52 342.04 C 134.13 339.52 131.07 336.55 127.61 334.13 C 124.99 332.27 121.58 334.87 118.90 333.83 C 110.45 325.32 108.15 313.18 103.32 302.61 C 101.32 297.77 100.69 292.40 97.73 287.97 C 94.43 278.12 93.73 267.60 93.53 257.29 C 93.64 250.79 94.25 244.31 94.63 237.83 C 97.19 248.25 101.36 258.51 108.01 267.02 C 116.52 275.84 128.59 281.85 141.03 281.37 C 155.35 280.54 169.52 274.94 179.94 264.97 C 188.35 256.57 196.53 247.61 201.74 236.81 C 203.74 232.79 205.09 228.39 207.78 224.75 M 200.39 261.41 C 197.95 262.48 196.61 265.69 197.80 268.15 C 199.78 273.31 205.13 276.18 210.06 277.93 C 219.08 280.93 229.67 276.14 233.67 267.61 C 234.54 265.06 233.13 261.00 229.97 261.13 C 223.99 260.70 217.99 261.16 212.00 260.97 C 208.13 261.00 204.20 260.57 200.39 261.41 Z" />
</g>
<g id="#debda2ff">
<path fill="#debda2" opacity="1.00" d=" M 316.43 229.15 C 321.36 227.23 326.52 226.01 331.45 224.08 C 330.58 230.08 330.42 236.69 327.11 241.93 C 323.52 244.78 319.39 247.16 314.78 247.75 C 310.97 248.38 307.23 247.24 303.48 246.80 C 300.18 246.39 297.21 248.23 294.11 248.98 C 291.33 249.88 288.46 248.94 285.71 248.44 C 286.49 247.71 287.27 247.00 288.06 246.28 C 291.64 246.00 296.08 245.60 297.86 241.93 C 300.09 237.21 297.96 231.80 295.81 227.44 C 297.78 228.91 300.21 230.00 302.03 227.66 C 306.68 228.91 311.66 231.22 316.43 229.15 Z" />
</g>
<g id="#5c5651ff">
<path fill="#5c5651" opacity="1.00" d=" M 132.60 228.69 C 136.55 225.28 141.89 224.59 146.90 225.29 C 156.77 226.60 166.83 224.32 176.60 226.65 C 178.72 227.15 180.56 228.38 182.28 229.69 C 183.92 233.30 184.07 237.33 184.42 241.22 C 181.07 243.98 176.93 247.05 172.32 245.71 C 166.34 243.97 164.31 236.73 158.58 234.53 C 155.58 233.69 153.14 236.30 151.17 238.15 C 148.07 241.06 145.52 245.40 140.93 245.96 C 137.05 246.60 133.62 244.34 130.52 242.36 C 129.95 237.71 130.36 232.88 132.60 228.69 Z" />
</g>
<g id="#5c5751ff">
<path fill="#5c5751" opacity="1.00" d=" M 247.66 228.63 C 250.13 226.56 253.23 225.15 256.52 225.60 C 264.11 226.35 271.70 224.57 279.27 225.67 C 284.36 226.38 289.56 227.01 294.65 225.90 C 294.94 226.28 295.52 227.06 295.81 227.44 C 297.96 231.80 300.09 237.21 297.86 241.93 C 296.08 245.60 291.64 246.00 288.06 246.28 C 281.58 244.20 278.79 237.03 272.70 234.47 C 267.69 234.46 264.95 239.64 261.66 242.68 C 258.78 246.11 253.67 246.81 249.65 245.25 C 246.43 243.78 245.31 240.12 243.58 237.33 C 244.95 234.43 246.16 231.46 247.66 228.63 Z" />
</g>
<g id="#9c6740ff">
<path fill="#9c6740" opacity="1.00" d=" M 347.96 238.80 C 349.56 234.82 351.95 231.25 354.49 227.82 C 356.84 231.94 359.45 235.92 361.61 240.15 C 363.89 244.75 365.12 249.85 365.10 254.98 C 365.09 262.51 365.77 270.43 362.39 277.42 C 358.41 287.51 350.36 295.22 341.59 301.27 C 343.41 296.69 343.82 291.75 344.92 286.99 C 347.52 283.90 350.56 281.08 352.29 277.37 C 357.92 265.55 357.18 251.07 350.37 239.88 C 350.22 239.53 349.92 238.82 349.76 238.47 C 349.31 238.55 348.41 238.72 347.96 238.80 Z" />
</g>
<g id="#9c673fff">
<path fill="#9c673f" opacity="1.00" d=" M 77.39 228.54 C 79.65 232.61 81.98 236.64 84.03 240.82 C 83.43 240.61 82.23 240.20 81.64 239.99 C 76.85 246.59 75.03 254.94 75.90 262.98 C 76.62 270.66 78.44 279.29 85.23 283.94 C 86.61 289.25 87.70 294.63 89.25 299.89 C 80.63 296.40 74.59 288.48 70.59 280.35 C 68.30 275.94 67.01 271.03 66.96 266.05 C 66.86 257.31 66.20 248.07 70.22 239.99 C 72.11 235.88 74.66 232.13 77.39 228.54 Z" />
</g>
<g id="#d7b290ff">
<path fill="#d7b290" opacity="1.00" d=" M 184.42 241.22 C 188.49 237.67 192.29 233.81 195.88 229.79 C 191.94 240.76 183.72 249.47 175.63 257.58 C 170.35 263.34 163.33 267.10 156.28 270.26 C 146.39 273.80 134.84 274.91 125.32 269.70 C 120.02 266.56 114.58 263.04 111.34 257.64 C 108.62 253.23 105.73 248.63 105.39 243.32 C 106.93 245.33 108.56 247.26 110.17 249.22 C 114.42 248.10 118.82 248.23 123.17 248.47 C 126.02 248.69 128.42 246.90 130.82 245.64 C 130.71 244.55 130.61 243.45 130.52 242.36 C 133.62 244.34 137.05 246.60 140.93 245.96 C 145.52 245.40 148.07 241.06 151.17 238.15 C 153.14 236.30 155.58 233.69 158.58 234.53 C 164.31 236.73 166.34 243.97 172.32 245.71 C 176.93 247.05 181.07 243.98 184.42 241.22 Z" />
</g>
<g id="#d8b392ff">
<path fill="#d8b392" opacity="1.00" d=" M 236.08 229.81 C 238.77 232.10 241.64 234.30 243.58 237.33 C 245.31 240.12 246.43 243.78 249.65 245.25 C 253.67 246.81 258.78 246.11 261.66 242.68 C 264.95 239.64 267.69 234.46 272.70 234.47 C 278.79 237.03 281.58 244.20 288.06 246.28 C 287.27 247.00 286.49 247.71 285.71 248.44 C 288.46 248.94 291.33 249.88 294.11 248.98 C 297.21 248.23 300.18 246.39 303.48 246.80 C 307.23 247.24 310.97 248.38 314.78 247.75 C 319.39 247.16 323.52 244.78 327.11 241.93 C 326.61 247.43 323.66 252.21 320.72 256.72 C 319.24 258.84 317.60 261.04 315.19 262.13 C 306.00 264.99 296.47 262.16 287.11 263.11 C 281.76 263.33 276.24 265.03 271.01 263.15 C 267.29 261.90 263.48 260.97 259.60 260.41 C 258.09 260.23 256.99 259.07 255.92 258.11 C 249.76 252.16 244.41 245.39 239.78 238.19 C 238.08 235.62 236.84 232.78 236.08 229.81 Z" />
</g>
<g id="#b7875cff">
<path fill="#b7875c" opacity="1.00" d=" M 347.96 238.80 C 348.41 238.72 349.31 238.55 349.76 238.47 C 349.92 238.82 350.22 239.53 350.37 239.88 C 350.18 246.28 348.82 252.60 348.90 259.02 C 348.90 268.49 346.99 277.80 344.92 286.99 C 343.82 291.75 343.41 296.69 341.59 301.27 C 336.85 316.50 330.93 331.59 321.70 344.71 C 309.24 363.39 290.66 377.80 269.73 385.80 C 256.35 390.85 242.20 393.85 227.92 394.53 C 212.16 395.19 196.20 394.94 180.76 391.42 C 162.89 387.70 145.83 379.89 131.54 368.50 C 124.97 363.80 119.89 357.42 114.61 351.39 C 107.29 343.46 102.72 333.54 98.10 323.90 C 94.36 316.20 92.20 307.90 89.25 299.89 C 87.70 294.63 86.61 289.25 85.23 283.94 C 81.52 269.57 82.11 254.69 81.64 239.99 C 82.23 240.20 83.43 240.61 84.03 240.82 C 86.91 246.47 89.65 252.24 93.53 257.29 C 93.73 267.60 94.43 278.12 97.73 287.97 C 99.03 298.70 103.07 308.83 107.07 318.79 C 114.64 335.63 126.10 350.97 140.78 362.25 C 148.28 367.39 156.13 372.21 164.66 375.42 C 188.17 383.51 213.66 386.99 238.30 382.65 C 251.10 380.69 263.85 377.45 275.50 371.66 C 283.96 367.99 290.91 361.79 297.98 356.02 C 304.61 350.59 309.65 343.57 314.75 336.75 C 319.07 330.96 321.69 324.18 324.75 317.70 C 330.95 304.96 335.04 291.05 335.97 276.88 C 338.28 268.04 338.54 258.72 336.19 249.86 C 336.91 252.34 337.81 254.75 338.72 257.17 C 342.90 251.66 345.19 245.07 347.96 238.80 Z" />
<path fill="#b7875c" opacity="1.00" d=" M 200.39 261.41 C 204.20 260.57 208.13 261.00 212.00 260.97 C 217.99 261.16 223.99 260.70 229.97 261.13 C 233.13 261.00 234.54 265.06 233.67 267.61 C 229.67 276.14 219.08 280.93 210.06 277.93 C 205.13 276.18 199.78 273.31 197.80 268.15 C 196.61 265.69 197.95 262.48 200.39 261.41 Z" />
</g>
<g id="#ac7549ff">
<path fill="#ac7549" opacity="1.00" d=" M 75.90 262.98 C 75.03 254.94 76.85 246.59 81.64 239.99 C 82.11 254.69 81.52 269.57 85.23 283.94 C 78.44 279.29 76.62 270.66 75.90 262.98 Z" />
</g>
<g id="#ab744bff">
<path fill="#ab744b" opacity="1.00" d=" M 350.37 239.88 C 357.18 251.07 357.92 265.55 352.29 277.37 C 350.56 281.08 347.52 283.90 344.92 286.99 C 346.99 277.80 348.90 268.49 348.90 259.02 C 348.82 252.60 350.18 246.28 350.37 239.88 Z" />
</g>
<g id="#ca9d74ff">
<path fill="#ca9d74" opacity="1.00" d=" M 333.46 284.04 C 333.82 281.51 334.87 279.17 335.97 276.88 C 335.04 291.05 330.95 304.96 324.75 317.70 C 321.69 324.18 319.07 330.96 314.75 336.75 C 309.65 343.57 304.61 350.59 297.98 356.02 C 290.91 361.79 283.96 367.99 275.50 371.66 C 263.85 377.45 251.10 380.69 238.30 382.65 C 213.66 386.99 188.17 383.51 164.66 375.42 C 156.13 372.21 148.28 367.39 140.78 362.25 C 126.10 350.97 114.64 335.63 107.07 318.79 C 103.07 308.83 99.03 298.70 97.73 287.97 C 100.69 292.40 101.32 297.77 103.32 302.61 C 108.15 313.18 110.45 325.32 118.90 333.83 C 121.58 334.87 124.99 332.27 127.61 334.13 C 131.07 336.55 134.13 339.52 137.52 342.04 C 140.93 341.96 144.31 342.44 147.63 343.22 C 146.40 340.31 144.12 338.16 141.31 336.80 C 140.42 338.12 139.54 339.44 138.66 340.77 C 137.35 339.40 135.97 338.10 134.90 336.54 C 135.48 333.84 137.06 331.50 138.29 329.07 C 147.15 340.01 158.05 349.46 170.45 356.18 C 179.13 359.71 187.86 363.61 197.26 364.71 C 204.18 365.48 211.13 366.90 218.11 366.17 C 230.87 364.93 243.99 363.27 255.47 357.15 C 267.55 351.58 278.46 343.37 286.71 332.89 C 287.66 334.37 288.61 335.86 289.56 337.35 C 293.85 336.92 298.16 336.74 302.48 336.90 C 302.93 340.08 303.45 343.26 304.07 346.42 C 306.85 344.01 308.43 340.70 308.78 337.07 C 310.60 336.26 312.79 335.78 313.93 333.98 C 317.43 328.83 319.69 322.97 322.30 317.34 C 324.60 312.01 327.87 307.08 329.29 301.40 C 330.74 295.62 332.54 289.93 333.46 284.04 Z" />
</g>
<g id="#ae784fff">
<path fill="#ae784f" opacity="1.00" d=" M 126.68 292.72 C 128.87 289.10 133.55 288.85 137.26 289.76 C 146.79 291.80 156.51 292.58 166.16 293.88 C 174.96 295.14 183.88 294.68 192.72 295.53 C 201.79 296.43 210.90 295.97 220.00 296.07 C 231.37 296.31 242.68 294.92 254.04 294.59 C 265.99 293.16 278.04 292.34 289.84 289.86 C 293.28 289.16 297.66 288.79 300.06 291.93 C 302.47 296.13 302.13 301.31 301.02 305.86 C 301.14 304.33 301.20 302.80 301.28 301.27 C 298.63 302.26 295.98 303.26 293.36 304.30 C 293.63 302.09 293.91 299.88 294.19 297.68 C 288.08 297.57 282.01 298.40 275.99 299.33 C 263.94 301.17 251.78 302.18 239.60 302.70 C 230.42 303.58 221.20 303.40 212.00 303.39 C 193.42 303.66 174.86 302.27 156.40 300.27 C 148.46 299.45 140.62 297.16 132.57 297.79 C 133.42 300.28 134.42 302.73 135.73 305.03 C 132.43 303.87 129.17 302.58 125.92 301.28 C 126.14 303.29 126.35 305.30 126.65 307.31 C 125.06 302.67 124.44 297.24 126.68 292.72 Z" />
</g>
<g id="#fffefeff">
<path fill="#fffefe" opacity="1.00" d=" M 132.57 297.79 C 140.62 297.16 148.46 299.45 156.40 300.27 C 174.86 302.27 193.42 303.66 212.00 303.39 C 221.20 303.40 230.42 303.58 239.60 302.70 C 251.78 302.18 263.94 301.17 275.99 299.33 C 282.01 298.40 288.08 297.57 294.19 297.68 C 293.91 299.88 293.63 302.09 293.36 304.30 C 283.17 308.02 273.20 312.69 262.46 314.59 C 262.83 314.87 263.19 315.14 263.56 315.43 C 248.52 318.30 233.40 321.52 218.00 321.54 C 210.46 321.54 202.88 321.75 195.39 320.72 C 186.97 319.60 178.43 318.92 170.22 316.63 C 162.05 314.41 153.78 312.39 146.00 308.98 C 142.63 307.52 139.21 306.18 135.73 305.03 C 134.42 302.73 133.42 300.28 132.57 297.79 Z" />
</g>
<g id="#242424ff">
<path fill="#242424" opacity="1.00" d=" M 125.92 301.28 C 129.17 302.58 132.43 303.87 135.73 305.03 C 139.21 306.18 142.63 307.52 146.00 308.98 C 153.78 312.39 162.05 314.41 170.22 316.63 C 178.43 318.92 186.97 319.60 195.39 320.72 C 202.88 321.75 210.46 321.54 218.00 321.54 C 233.40 321.52 248.52 318.30 263.56 315.43 C 263.19 315.14 262.83 314.87 262.46 314.59 C 273.20 312.69 283.17 308.02 293.36 304.30 C 295.98 303.26 298.63 302.26 301.28 301.27 C 301.20 302.80 301.14 304.33 301.02 305.86 C 297.80 315.54 292.77 324.69 286.71 332.89 C 278.46 343.37 267.55 351.58 255.47 357.15 C 252.60 354.53 249.70 351.93 246.47 349.78 C 240.63 346.21 234.30 343.38 227.72 341.49 C 211.60 337.96 193.91 340.63 180.33 350.31 C 177.23 352.57 174.21 355.09 170.45 356.18 C 158.05 349.46 147.15 340.01 138.29 329.07 C 133.94 322.10 129.33 315.13 126.65 307.31 C 126.35 305.30 126.14 303.29 125.92 301.28 Z" />
</g>
<g id="#ec7670ff">
<path fill="#ec7670" opacity="1.00" d=" M 180.33 350.31 C 193.91 340.63 211.60 337.96 227.72 341.49 C 234.30 343.38 240.63 346.21 246.47 349.78 C 246.51 350.36 246.60 351.53 246.64 352.11 C 227.64 359.49 206.26 359.73 186.72 354.32 C 184.21 353.68 182.21 351.99 180.33 350.31 Z" />
</g>
<g id="#dd5d54ff">
<path fill="#dd5d54" opacity="1.00" d=" M 170.45 356.18 C 174.21 355.09 177.23 352.57 180.33 350.31 C 182.21 351.99 184.21 353.68 186.72 354.32 C 206.26 359.73 227.64 359.49 246.64 352.11 C 246.60 351.53 246.51 350.36 246.47 349.78 C 249.70 351.93 252.60 354.53 255.47 357.15 C 243.99 363.27 230.87 364.93 218.11 366.17 C 211.13 366.90 204.18 365.48 197.26 364.71 C 187.86 363.61 179.13 359.71 170.45 356.18 Z" />
</g>
</svg>
